<svg version="1.2" xmlns="http://www.w3.org/2000/svg" viewBox="0 0 100 40" width="100" height="40">
	<title>New Project</title>
	<style>
		.s0 { fill: none;stroke: #e5e5e5;stroke-miterlimit:100;stroke-width: 2 } 
	</style>
	<path id="Background" class="s0" d=""/>
	<path id="Shape 1" class="s0" d=""/>
	<path id="Shape 2" fill-rule="evenodd" class="s0" d="m19 2.5h62c8.3 0 15 6.7 15 15v5c0 8.3-6.7 15-15 15h-62c-8.3 0-15-6.7-15-15v-5c0-8.3 6.7-15 15-15z"/>
	<path id="Shape 3" class="s0" d="m50 30c-5.5 0-10-4.5-10-10 0-5.5 4.5-10 10-10 5.5 0 10 4.5 10 10 0 5.5-4.5 10-10 10zm0 0c-5.5 0-10-4.5-10-10 0-5.5 4.5-10 10-10 5.5 0 10 4.5 10 10 0 5.5-4.5 10-10 10z"/>
	<path id="Shape 3 copy 2" class="s0" d="m22 30c-5.5 0-10-4.5-10-10 0-5.5 4.5-10 10-10 5.5 0 10 4.5 10 10 0 5.5-4.5 10-10 10zm0 0c-5.5 0-10-4.5-10-10 0-5.5 4.5-10 10-10 5.5 0 10 4.5 10 10 0 5.5-4.5 10-10 10z"/>
	<path id="Shape 3 copy" class="s0" d="m78 30c-5.5 0-10-4.5-10-10 0-5.5 4.5-10 10-10 5.5 0 10 4.5 10 10 0 5.5-4.5 10-10 10zm0 0c-5.5 0-10-4.5-10-10 0-5.5 4.5-10 10-10 5.5 0 10 4.5 10 10 0 5.5-4.5 10-10 10z"/>
</svg>